<svg width="40" height="40" viewBox="0 0 40 40" fill="none" xmlns="http://www.w3.org/2000/svg">
<path d="M17.5046 28.5632C16.6022 28.5632 15.8678 27.8288 15.8678 26.9264C15.8678 26.5952 15.599 26.3264 15.2678 26.3264C14.9366 26.3264 14.6678 26.5952 14.6678 26.9264C14.6678 27.8288 13.9334 28.5632 13.031 28.5632C12.6998 28.5632 12.431 28.832 12.431 29.1632C12.431 29.4944 12.6998 29.7632 13.031 29.7632C13.9334 29.7632 14.6678 30.4976 14.6678 31.4C14.6678 31.7312 14.9366 32 15.2678 32C15.599 32 15.8678 31.7312 15.8678 31.4C15.8678 30.4976 16.6022 29.7632 17.5046 29.7632C17.8358 29.7632 18.1046 29.4944 18.1046 29.1632C18.1046 28.832 17.8364 28.5632 17.5046 28.5632ZM15.2678 29.657C15.1244 29.4728 14.9582 29.3072 14.774 29.1632C14.9582 29.0198 15.1238 28.8536 15.2678 28.6694C15.4118 28.8536 15.5774 29.0192 15.7616 29.1632C15.5774 29.3072 15.4118 29.4728 15.2678 29.657Z" fill="#FFFFF0"/>
<path d="M5.501 9.2C6.4034 9.2 7.1378 9.9344 7.1378 10.8368C7.1378 11.168 7.4066 11.4368 7.7378 11.4368C8.069 11.4368 8.3378 11.168 8.3378 10.8368C8.3378 9.9344 9.0722 9.2 9.9746 9.2C10.3058 9.2 10.5746 8.9312 10.5746 8.6C10.5746 8.2688 10.3058 8 9.9746 8C9.0722 8 8.3378 7.2656 8.3378 6.3632C8.3378 6.032 8.069 5.7632 7.7378 5.7632C7.4066 5.7632 7.1378 6.032 7.1378 6.3632C7.1378 7.2656 6.4034 8 5.501 8C5.1698 8 4.901 8.2688 4.901 8.6C4.901 8.9312 5.1698 9.2 5.501 9.2ZM7.7378 8.1062C7.8812 8.2904 8.0474 8.456 8.2316 8.6C8.0474 8.7434 7.8818 8.9096 7.7378 9.0938C7.5938 8.9096 7.4282 8.744 7.244 8.6C7.4282 8.456 7.5944 8.2904 7.7378 8.1062Z" fill="#FFFFF0"/>
<path d="M35 2H21.7628C21.6176 2 21.4766 2.0528 21.368 2.1488L20.012 3.3356L18.7478 2.1602C18.6368 2.0576 18.491 2 18.3392 2H5C3.3458 2 2 3.3458 2 5V35C2 36.6542 3.3458 38 5 38H35C36.6542 38 38 36.6542 38 35V5C38 3.3458 36.6542 2 35 2ZM3.2 35V5C3.2 4.0076 4.0076 3.2 5 3.2H18.1034L19.4 4.4048V36.8H5C4.0076 36.8 3.2 35.9924 3.2 35ZM36.8 35C36.8 35.9924 35.9924 36.8 35 36.8H20.6V4.415L21.9884 3.2H35C35.9924 3.2 36.8 4.0076 36.8 5V35Z" fill="#FFFFF0"/>
<path d="M14.7086 23.0108C14.8082 23.0132 14.9126 23.018 15.008 23.018C16.8122 23.018 17.8748 22.5728 18.0926 21.7178C18.3212 20.8208 17.4992 19.874 15.734 18.9692C15.3494 17.3378 14.1002 16.0382 12.458 15.6194C10.8122 15.2006 9.092 15.7454 7.9826 16.994C6.0008 16.9448 4.8266 17.3822 4.598 18.2786C4.3682 19.1792 5.1896 20.1284 6.9548 21.0332C7.3388 22.6646 8.5862 23.9636 10.2248 24.3812C10.5944 24.4754 10.9676 24.521 11.3384 24.521C12.611 24.5216 13.8386 23.9774 14.7086 23.0108ZM16.9298 21.4214C16.886 21.5012 16.517 21.7442 15.4922 21.8042C15.503 21.7796 15.5078 21.7526 15.518 21.728C15.5996 21.5294 15.6728 21.3266 15.7268 21.1142C15.7802 20.906 15.8126 20.6936 15.8354 20.4812C15.8384 20.4548 15.8468 20.429 15.8492 20.402C16.7192 20.9438 16.9286 21.3308 16.9298 21.4214ZM12.1622 16.7822C13.4456 17.1092 14.4122 18.1646 14.6252 19.4744C14.6984 19.9088 14.6774 20.3732 14.5634 20.8184C14.5112 21.0224 14.4368 21.2156 14.3504 21.4016C14.3246 21.458 14.2928 21.5108 14.264 21.5654C14.2244 21.6392 14.1764 21.7076 14.1314 21.7784C14.0432 21.7718 13.9562 21.7658 13.8656 21.758C13.7618 21.7484 13.658 21.7388 13.5518 21.7268C13.3874 21.7082 13.2188 21.6842 13.049 21.6596C12.9452 21.6446 12.8426 21.6308 12.7364 21.6134C12.5474 21.5822 12.3542 21.545 12.161 21.5072C12.0704 21.4892 11.9816 21.4742 11.8904 21.455C11.6036 21.3944 11.3138 21.3284 11.0216 21.2534C10.7312 21.1796 10.4462 21.0992 10.1672 21.0158C10.0718 20.987 9.9812 20.9558 9.8876 20.9264C9.7064 20.8694 9.5264 20.8118 9.3518 20.7506C9.2456 20.7134 9.1436 20.6744 9.0404 20.636C8.8856 20.579 8.7326 20.5214 8.5844 20.4614C8.4812 20.4194 8.3822 20.3768 8.2826 20.3336C8.1962 20.2964 8.1134 20.2586 8.03 20.2202C8.03 20.2178 8.0294 20.2154 8.0294 20.213C8.0198 20.06 8.0234 19.9058 8.0354 19.7522C8.0384 19.7168 8.042 19.6808 8.0456 19.6454C8.063 19.4894 8.087 19.3334 8.1266 19.178C8.2394 18.7334 8.4434 18.3152 8.7194 17.9648C9.5264 16.919 10.8776 16.4546 12.1622 16.7822ZM5.7602 18.578C5.7962 18.5024 6.1616 18.2576 7.1984 18.1976C7.1882 18.221 7.1834 18.2474 7.1732 18.2708C7.091 18.4694 7.0178 18.6722 6.9644 18.8816C6.9104 19.094 6.8774 19.3082 6.854 19.5218C6.851 19.5476 6.8432 19.5734 6.8408 19.5992C5.9594 19.0496 5.7566 18.6584 5.7602 18.578ZM10.5224 23.2184C9.6626 22.9994 8.9456 22.4516 8.5028 21.7196C8.552 21.7382 8.606 21.7538 8.6558 21.7724C8.879 21.8546 9.1094 21.9326 9.3434 22.0094C9.4514 22.0448 9.5558 22.0814 9.6656 22.115C10.0118 22.2218 10.3646 22.3232 10.7264 22.4156C11.0888 22.508 11.4482 22.5878 11.8034 22.6598C11.9156 22.6826 12.0242 22.7 12.1352 22.721C12.3782 22.766 12.6182 22.808 12.854 22.8428C12.9062 22.8506 12.9608 22.8626 13.013 22.8698C12.272 23.3 11.3792 23.438 10.5224 23.2184Z" fill="#FFFFF0"/>
<path d="M23.0642 7.9892H31.4C31.7318 7.9892 32 7.7204 32 7.3892C32 7.058 31.7318 6.7892 31.4 6.7892H23.0642C22.7324 6.7892 22.4642 7.058 22.4642 7.3892C22.4642 7.7204 22.733 7.9892 23.0642 7.9892Z" fill="#FFFFF0"/>
<path d="M33.9926 10.4534H23.0642C22.7324 10.4534 22.4642 10.7222 22.4642 11.0534C22.4642 11.3846 22.7324 11.6534 23.0642 11.6534H33.9926C34.3244 11.6534 34.5926 11.3846 34.5926 11.0534C34.5926 10.7222 34.3244 10.4534 33.9926 10.4534Z" fill="#FFFFF0"/>
<path d="M33.9926 14.1176H23.0642C22.7324 14.1176 22.4642 14.3864 22.4642 14.7176C22.4642 15.0488 22.7324 15.3176 23.0642 15.3176H33.9926C34.3244 15.3176 34.5926 15.0488 34.5926 14.7176C34.5926 14.3864 34.3244 14.1176 33.9926 14.1176Z" fill="#FFFFF0"/>
<path d="M33.9926 17.7818H23.0642C22.7324 17.7818 22.4642 18.0506 22.4642 18.3818C22.4642 18.713 22.7324 18.9818 23.0642 18.9818H33.9926C34.3244 18.9818 34.5926 18.713 34.5926 18.3818C34.5926 18.0506 34.3244 17.7818 33.9926 17.7818Z" fill="#FFFFF0"/>
<path d="M33.9926 21.4466H23.0642C22.7324 21.4466 22.4642 21.7154 22.4642 22.0466C22.4642 22.3778 22.7324 22.6466 23.0642 22.6466H33.9926C34.3244 22.6466 34.5926 22.3778 34.5926 22.0466C34.5926 21.7154 34.3244 21.4466 33.9926 21.4466Z" fill="#FFFFF0"/>
<path d="M33.9926 25.1108H23.0642C22.7324 25.1108 22.4642 25.3796 22.4642 25.7108C22.4642 26.042 22.7324 26.3108 23.0642 26.3108H33.9926C34.3244 26.3108 34.5926 26.042 34.5926 25.7108C34.5926 25.3796 34.3244 25.1108 33.9926 25.1108Z" fill="#FFFFF0"/>
<path d="M33.9926 28.775H23.0642C22.7324 28.775 22.4642 29.0438 22.4642 29.375C22.4642 29.7062 22.7324 29.975 23.0642 29.975H33.9926C34.3244 29.975 34.5926 29.7062 34.5926 29.375C34.5926 29.0438 34.3244 28.775 33.9926 28.775Z" fill="#FFFFF0"/>
<path d="M33.9926 32.4392H23.0642C22.7324 32.4392 22.4642 32.708 22.4642 33.0392C22.4642 33.3704 22.7324 33.6392 23.0642 33.6392H33.9926C34.3244 33.6392 34.5926 33.3704 34.5926 33.0392C34.5926 32.708 34.3244 32.4392 33.9926 32.4392Z" fill="#FFFFF0"/>
</svg>
