<svg width="40" height="40" viewBox="0 0 40 40" fill="none" xmlns="http://www.w3.org/2000/svg">
<path d="M22.206 5.36403C22.6907 5.44296 23.176 5.55273 23.6502 5.68963C23.7076 5.70628 23.7649 5.71429 23.821 5.71429C24.0893 5.71429 24.3353 5.53854 24.4136 5.26844C24.508 4.94099 24.3199 4.59936 23.9918 4.50501C23.4714 4.35454 22.9374 4.23429 22.4046 4.14673C22.066 4.09184 21.7509 4.31939 21.6966 4.65609C21.6417 4.99218 21.8699 5.30914 22.206 5.36403Z" fill="#FFFFF0"/>
<path d="M26.1267 6.70714C30.1628 8.90185 32.6702 13.1088 32.6702 17.6875C32.6702 18.0279 32.9458 18.3042 33.2869 18.3042C33.6279 18.3042 33.9035 18.0279 33.9035 17.6875C33.9035 12.6567 31.1489 8.0342 26.7157 5.62427C26.4172 5.46147 26.0416 5.57247 25.8795 5.87155C25.7167 6.17064 25.8277 6.54434 26.1267 6.70714Z" fill="#FFFFF0"/>
<path d="M3.36374 9.52838C4.28072 9.52838 5.0904 9.95882 5.62999 10.618C4.56377 12.8072 3.9952 15.2406 3.9952 17.6875C3.9952 22.524 6.1782 27.1145 9.87944 30.1688C9.51314 30.5012 9.2788 30.976 9.2788 31.5082V32.2353C7.98874 32.329 6.96384 33.3971 6.96384 34.7112V37.8833C6.96384 38.2237 7.23949 38.5 7.5805 38.5H32.7855C33.1265 38.5 33.4022 38.2237 33.4022 37.8833V34.7112C33.4022 33.3971 32.3773 32.329 31.0872 32.2353V31.5082C31.0872 30.9754 30.8523 30.5 30.4847 30.1676C31.2143 29.5663 31.8864 28.8991 32.5006 28.1782C32.7029 28.5766 32.8274 29.0206 32.8274 29.4973C32.8274 29.8377 33.1031 30.114 33.4441 30.114C33.7851 30.114 34.0608 29.8377 34.0608 29.4973C34.0608 27.8755 35.3805 26.5558 37.0023 26.5558C37.3433 26.5558 37.6189 26.2795 37.6189 25.9391C37.6189 25.5987 37.3433 25.3225 37.0023 25.3225C36.1759 25.3225 35.4304 24.9771 34.8958 24.4264C35.8707 22.3131 36.3708 20.0493 36.3708 17.6875C36.3708 8.76187 29.1096 1.5 20.1833 1.5C15.4997 1.5 11.1159 3.49368 8.03807 6.99018C7.72295 6.52213 7.53857 5.95912 7.53857 5.35355C7.53857 5.01315 7.26292 4.73688 6.9219 4.73688C6.58089 4.73688 6.30524 5.01315 6.30524 5.35355C6.30524 6.97538 4.98557 8.29505 3.36374 8.29505C3.02272 8.29505 2.74707 8.57132 2.74707 8.91172C2.74707 9.25212 3.02272 9.52838 3.36374 9.52838ZM13.3383 37.2667H8.19655V34.7112C8.19655 34.0162 8.76204 33.4507 9.45702 33.4507H13.3383V37.2667ZM25.7931 37.2667H14.5717V33.4507H25.7931V37.2667ZM13.955 32.2174H10.5115V31.5089C10.5115 31.1876 10.773 30.9267 11.0937 30.9267H29.2711C29.5924 30.9267 29.8533 31.1882 29.8533 31.5089V32.2174H13.955ZM30.9078 33.4507C31.6027 33.4507 32.1682 34.0162 32.1682 34.7112V37.2667H27.0265V33.4507H30.9078ZM33.4435 27.3155C33.0988 26.7562 32.6264 26.2832 32.0671 25.9391C32.6264 25.595 33.0994 25.122 33.4435 24.5627C33.5175 24.683 33.6001 24.7977 33.6859 24.9093C33.6939 24.9198 33.6994 24.9315 33.7087 24.942C34.0164 25.3366 34.3919 25.6758 34.8193 25.9391C34.26 26.2832 33.7876 26.7562 33.4435 27.3155ZM10.4801 9.52838C10.8211 9.52838 11.0967 9.25212 11.0967 8.91172C11.0967 8.57132 10.8211 8.29505 10.4801 8.29505C9.91027 8.29505 9.38179 8.12485 8.93039 7.84303C11.7757 4.59012 15.8395 2.73333 20.1827 2.73333C28.4282 2.73333 35.1369 9.44143 35.1369 17.6875C35.1369 19.5492 34.7989 21.3443 34.1422 23.0433C34.0928 22.8293 34.0602 22.6097 34.0602 22.381C34.0602 22.0406 33.7845 21.7643 33.4435 21.7643C33.1025 21.7643 32.8268 22.0406 32.8268 22.381C32.8268 24.0028 31.5072 25.3225 29.8847 25.3225C29.5437 25.3225 29.2681 25.5987 29.2681 25.9391C29.2681 26.2795 29.5437 26.5558 29.8847 26.5558C30.5754 26.5558 31.2031 26.8049 31.7057 27.2051C30.9343 28.1381 30.0586 28.9744 29.0874 29.6934H11.2756C7.48739 26.8863 5.22854 22.4155 5.22854 17.6881C5.22854 15.7783 5.58435 13.9388 6.27687 12.1973C6.2855 12.2886 6.30462 12.3768 6.30462 12.4705C6.30462 12.8109 6.58027 13.0872 6.92129 13.0872C7.2623 13.0872 7.53795 12.8109 7.53795 12.4705C7.53795 10.8487 8.85762 9.529 10.4801 9.529V9.52838ZM6.92129 7.53532C7.11985 7.85783 7.3659 8.14767 7.64155 8.40482C7.64649 8.40913 7.64834 8.41468 7.65327 8.419C7.65635 8.42147 7.66005 8.42147 7.66314 8.42393C7.85985 8.60462 8.06952 8.77112 8.29769 8.91172C7.73837 9.25582 7.26539 9.7288 6.92129 10.2881C6.896 10.2468 6.86455 10.2092 6.83804 10.1691C6.83125 10.1599 6.8257 10.15 6.8183 10.1407C6.48469 9.6474 6.05364 9.22437 5.5455 8.91172C6.10482 8.56762 6.57719 8.09463 6.92129 7.53532Z" fill="#FFFFF0"/>
<path d="M10.7125 13.9696C11.7214 13.9696 12.5422 14.7904 12.5422 15.7993C12.5422 16.1397 12.8178 16.416 13.1589 16.416C13.4999 16.416 13.7755 16.1397 13.7755 15.7993C13.7755 14.7904 14.5963 13.9696 15.6052 13.9696C15.9462 13.9696 16.2218 13.6934 16.2218 13.353C16.2218 13.0126 15.9462 12.7363 15.6052 12.7363C14.5963 12.7363 13.7755 11.9155 13.7755 10.9067C13.7755 10.5663 13.4999 10.29 13.1589 10.29C12.8178 10.29 12.5422 10.5663 12.5422 10.9067C12.5422 11.9155 11.7214 12.7363 10.7125 12.7363C10.3715 12.7363 10.0959 13.0126 10.0959 13.353C10.0959 13.6934 10.3715 13.9696 10.7125 13.9696ZM13.1589 12.748C13.3309 12.9768 13.535 13.1803 13.7638 13.353C13.535 13.5256 13.3309 13.7291 13.1589 13.9579C12.9868 13.7291 12.7827 13.5256 12.5539 13.353C12.7827 13.1803 12.9868 12.9768 13.1589 12.748Z" fill="#FFFFF0"/>
<path d="M16.796 35.9754H23.5694C23.9104 35.9754 24.1861 35.6991 24.1861 35.3587C24.1861 35.0183 23.9104 34.742 23.5694 34.742H16.796C16.4549 34.742 16.1793 35.0183 16.1793 35.3587C16.1793 35.6991 16.4549 35.9754 16.796 35.9754Z" fill="#FFFFF0"/>
</svg>
