<svg width="40" height="40" viewBox="0 0 40 40" fill="none" xmlns="http://www.w3.org/2000/svg">
<path d="M27.5857 11.4198C26.0417 11.4198 24.7866 10.164 24.7866 8.62073C24.7866 8.26324 24.4971 7.97311 24.139 7.97311C23.7808 7.97311 23.4914 8.26324 23.4914 8.62073C23.4914 10.164 22.2363 11.4198 20.6923 11.4198C20.3342 11.4198 20.0447 11.7099 20.0447 12.0674C20.0447 12.4249 20.3342 12.715 20.6923 12.715C22.2363 12.715 23.4914 13.9708 23.4914 15.5141C23.4914 15.8716 23.7808 16.1617 24.139 16.1617C24.4971 16.1617 24.7866 15.8716 24.7866 15.5141C24.7866 13.9708 26.0417 12.715 27.5857 12.715C27.9438 12.715 28.2333 12.4249 28.2333 12.0674C28.2333 11.7099 27.9438 11.4198 27.5857 11.4198ZM24.139 13.3063C23.8197 12.8096 23.3968 12.3867 22.9001 12.0674C23.3968 11.7481 23.8197 11.3252 24.139 10.8285C24.4583 11.3252 24.8812 11.7481 25.3779 12.0674C24.8812 12.3867 24.4583 12.8096 24.139 13.3063Z" fill="#FFFFF0"/>
<path d="M27.8512 16.7387C27.5753 16.6157 27.2483 16.6986 27.0669 16.9414C26.0081 18.3565 24.3896 19.168 22.6281 19.168C19.5732 19.168 17.0883 16.683 17.0883 13.6282C17.0883 11.866 17.8997 10.2476 19.3148 9.18868C19.557 9.0067 19.6419 8.68094 19.5169 8.40505C19.3925 8.12787 19.0953 7.97309 18.7961 8.03591C15.1065 8.79234 12.4286 12.079 12.4286 15.8515C12.4286 20.2489 16.0061 23.8264 20.4041 23.8264C24.1759 23.8264 27.4626 21.1484 28.2191 17.4589C28.2799 17.1623 28.1264 16.8624 27.8506 16.7381L27.8512 16.7387ZM20.4048 22.5311C16.7211 22.5311 13.7245 19.5345 13.7245 15.8515C13.7245 13.6023 14.8604 11.5596 16.6298 10.3402C16.0851 11.3304 15.793 12.4534 15.793 13.6288C15.793 17.3974 18.8589 20.4639 22.6281 20.4639C23.8029 20.4639 24.9259 20.1718 25.9161 19.6278C24.6966 21.3958 22.654 22.5311 20.4048 22.5311Z" fill="#FFFFF0"/>
<path d="M34.1073 34.7331C36.1304 34.7331 37.7761 33.0875 37.7761 31.0643C37.7761 29.0411 36.1304 27.3955 34.1073 27.3955C32.0841 27.3955 30.4384 29.0417 30.4384 31.0643C30.4384 33.0868 32.0841 34.7331 34.1073 34.7331ZM34.1073 28.6907C35.4161 28.6907 36.4808 29.7554 36.4808 31.0643C36.4808 32.3731 35.4155 33.4378 34.1073 33.4378C32.7991 33.4378 31.7337 32.3731 31.7337 31.0643C31.7337 29.7554 32.7991 28.6907 34.1073 28.6907Z" fill="#FFFFF0"/>
<path d="M26.3118 36.8022C26.3118 38.1901 27.4406 39.3196 28.8291 39.3196C30.2176 39.3196 31.3458 38.1901 31.3458 36.8022C31.3458 35.4144 30.217 34.2856 28.8291 34.2856C27.4412 34.2856 26.3118 35.4144 26.3118 36.8022ZM30.0499 36.8022C30.0499 37.4764 29.502 38.0243 28.8284 38.0243C28.1549 38.0243 27.6064 37.4764 27.6064 36.8022C27.6064 36.1281 28.1549 35.5808 28.8284 35.5808C29.502 35.5808 30.0499 36.1287 30.0499 36.8022Z" fill="#FFFFF0"/>
<path d="M32.924 10.5882C32.823 10.5714 32.72 10.5558 32.6151 10.5429C32.1508 5.6345 28.3926 1.5525 23.4836 0.722886C19.0875 -0.0205907 14.6635 1.98641 12.3139 5.73812C12.1695 5.70185 12.0309 5.67271 11.8949 5.65004C8.37959 5.05552 5.04754 7.43102 4.45432 10.9399C4.35458 11.5337 4.33904 12.138 4.40963 12.7416C2.43955 13.6159 1.02383 15.4208 0.66116 17.5677C0.0692279 21.0772 2.44214 24.4151 5.95228 25.0076C6.26444 25.0601 6.58696 25.0886 6.9153 25.0938C8.11406 27.8468 10.6418 29.8396 13.6144 30.3415C14.1143 30.4257 14.6156 30.4678 15.113 30.4678C17.0993 30.4678 19.0285 29.8046 20.6113 28.5605C21.439 29.1363 22.3891 29.5255 23.3877 29.6939C26.3882 30.201 29.3802 28.6369 30.702 25.9402C32.6248 26.1747 34.5386 25.6902 36.1272 24.5601C37.8162 23.3594 38.9366 21.5726 39.2818 19.5294C39.9942 15.3113 37.1414 11.3006 32.924 10.5882ZM38.0047 19.3143C37.7178 21.0163 36.7839 22.5052 35.3773 23.5051C33.9693 24.5057 32.2563 24.8982 30.498 24.5996C30.4941 24.599 30.4346 24.5867 30.4313 24.586C30.1269 24.5303 29.8238 24.6948 29.7099 24.9837C28.7475 27.4077 26.179 28.8494 23.6034 28.4174C22.6481 28.2561 21.7492 27.8468 21.0019 27.2335C20.7545 27.0308 20.4002 27.0379 20.1612 27.2491C18.4224 28.7885 16.1129 29.4504 13.83 29.065C11.1586 28.6136 8.90676 26.7536 7.9541 24.2104C7.8589 23.9565 7.61668 23.7901 7.34727 23.7901C7.33561 23.7901 7.32396 23.7901 7.31165 23.7907C6.91984 23.8121 6.53256 23.7914 6.16665 23.7305C3.36112 23.2564 1.46357 20.5889 1.93763 17.7833C2.25173 15.9234 3.55606 14.3833 5.34092 13.7648C5.64725 13.6586 5.82794 13.3432 5.76382 13.0259C5.63883 12.399 5.62717 11.7695 5.73079 11.1549C6.20421 8.34935 8.87438 6.45115 11.6786 6.92651C11.902 6.96408 12.1358 7.02366 12.415 7.11433C12.707 7.20953 13.0276 7.08453 13.1792 6.81577C15.1829 3.25446 19.239 1.31741 23.2679 1.99871C27.7657 2.75838 31.169 6.61306 31.3594 11.1639C31.373 11.4975 31.6385 11.7656 31.9714 11.7837C32.2285 11.7973 32.4701 11.8239 32.7071 11.864C36.2218 12.4579 38.5979 15.799 38.004 19.313L38.0047 19.3143Z" fill="#FFFFF0"/>
</svg>
